<?xml version="1.0" encoding="UTF-8"?>
<!--Generator: Apple Native CoreSVG 175.5-->
<!DOCTYPE svg
PUBLIC "-//W3C//DTD SVG 1.1//EN"
       "http://www.w3.org/Graphics/SVG/1.1/DTD/svg11.dtd">
<svg version="1.1" xmlns="http://www.w3.org/2000/svg" xmlns:xlink="http://www.w3.org/1999/xlink" width="3300" height="2200">
 <!--glyph: "uni10043E.medium", point size: 100.0, font version: "18.0d11e1", template writer version: "90"-->
 <style>.multicolor-0:tintColor {fill:#007AFF}
.multicolor-1:tintColor {fill:#007AFF}
.multicolor-2:tintColor {fill:#007AFF}

.hierarchical-0:primary {fill:#212121}
.hierarchical-1:primary {fill:#212121}
.hierarchical-2:primary {fill:#212121}

.SFSymbolsPreview007AFF {fill:#007AFF;opacity:1.0}
</style>
 <g id="Notes">
  <rect height="2200" id="artboard" style="fill:white;opacity:1" width="3300" x="0" y="0"/>
  <line style="fill:none;stroke:black;opacity:1;stroke-width:0.5;" x1="263" x2="3036" y1="292" y2="292"/>
  <text style="stroke:none;fill:black;font-family:sans-serif;font-size:13;font-weight:bold;" transform="matrix(1 0 0 1 263 322)">Weight/Scale Variations</text>
  <text style="stroke:none;fill:black;font-family:sans-serif;font-size:13;text-anchor:middle;" transform="matrix(1 0 0 1 559.711 322)">Ultralight</text>
  <text style="stroke:none;fill:black;font-family:sans-serif;font-size:13;text-anchor:middle;" transform="matrix(1 0 0 1 856.422 322)">Thin</text>
  <text style="stroke:none;fill:black;font-family:sans-serif;font-size:13;text-anchor:middle;" transform="matrix(1 0 0 1 1153.13 322)">Light</text>
  <text style="stroke:none;fill:black;font-family:sans-serif;font-size:13;text-anchor:middle;" transform="matrix(1 0 0 1 1449.84 322)">Regular</text>
  <text style="stroke:none;fill:black;font-family:sans-serif;font-size:13;text-anchor:middle;" transform="matrix(1 0 0 1 1746.56 322)">Medium</text>
  <text style="stroke:none;fill:black;font-family:sans-serif;font-size:13;text-anchor:middle;" transform="matrix(1 0 0 1 2043.27 322)">Semibold</text>
  <text style="stroke:none;fill:black;font-family:sans-serif;font-size:13;text-anchor:middle;" transform="matrix(1 0 0 1 2339.98 322)">Bold</text>
  <text style="stroke:none;fill:black;font-family:sans-serif;font-size:13;text-anchor:middle;" transform="matrix(1 0 0 1 2636.69 322)">Heavy</text>
  <text style="stroke:none;fill:black;font-family:sans-serif;font-size:13;text-anchor:middle;" transform="matrix(1 0 0 1 2933.4 322)">Black</text>
  <line style="fill:none;stroke:black;opacity:1;stroke-width:0.5;" x1="263" x2="3036" y1="1903" y2="1903"/>
  <g transform="matrix(1 0 0 1 263 1933)">
   <path d="M9.24805 0.830078C13.5547 0.830078 17.1387-2.74414 17.1387-7.05078C17.1387-11.3574 13.5449-14.9316 9.23828-14.9316C4.94141-14.9316 1.36719-11.3574 1.36719-7.05078C1.36719-2.74414 4.95117 0.830078 9.24805 0.830078ZM9.24805-0.654297C5.70312-0.654297 2.87109-3.49609 2.87109-7.05078C2.87109-10.6055 5.69336-13.4473 9.23828-13.4473C12.793-13.4473 15.6445-10.6055 15.6445-7.05078C15.6445-3.49609 12.8027-0.654297 9.24805-0.654297ZM5.6543-7.05078C5.6543-6.62109 5.95703-6.32812 6.40625-6.32812L8.50586-6.32812L8.50586-4.20898C8.50586-3.76953 8.79883-3.4668 9.22852-3.4668C9.67773-3.4668 9.9707-3.76953 9.9707-4.20898L9.9707-6.32812L12.0898-6.32812C12.5293-6.32812 12.832-6.62109 12.832-7.05078C12.832-7.49023 12.5293-7.79297 12.0898-7.79297L9.9707-7.79297L9.9707-9.90234C9.9707-10.3516 9.67773-10.6543 9.22852-10.6543C8.79883-10.6543 8.50586-10.3516 8.50586-9.90234L8.50586-7.79297L6.40625-7.79297C5.95703-7.79297 5.6543-7.49023 5.6543-7.05078Z"/>
  </g>
  <g transform="matrix(1 0 0 1 281.867 1933)">
   <path d="M11.709 2.91016C17.1582 2.91016 21.6699-1.61133 21.6699-7.05078C21.6699-12.5 17.1484-17.0117 11.6992-17.0117C6.25977-17.0117 1.74805-12.5 1.74805-7.05078C1.74805-1.61133 6.26953 2.91016 11.709 2.91016ZM11.709 1.25C7.09961 1.25 3.41797-2.44141 3.41797-7.05078C3.41797-11.6602 7.08984-15.3516 11.6992-15.3516C16.3086-15.3516 20.0098-11.6602 20.0098-7.05078C20.0098-2.44141 16.3184 1.25 11.709 1.25ZM7.17773-7.05078C7.17773-6.57227 7.50977-6.25 8.00781-6.25L10.8789-6.25L10.8789-3.36914C10.8789-2.88086 11.2109-2.53906 11.6895-2.53906C12.1777-2.53906 12.5195-2.87109 12.5195-3.36914L12.5195-6.25L15.4004-6.25C15.8887-6.25 16.2305-6.57227 16.2305-7.05078C16.2305-7.53906 15.8887-7.88086 15.4004-7.88086L12.5195-7.88086L12.5195-10.752C12.5195-11.25 12.1777-11.5918 11.6895-11.5918C11.2109-11.5918 10.8789-11.25 10.8789-10.752L10.8789-7.88086L8.00781-7.88086C7.50977-7.88086 7.17773-7.53906 7.17773-7.05078Z"/>
  </g>
  <g transform="matrix(1 0 0 1 305.646 1933)">
   <path d="M14.9707 5.66406C21.9336 5.66406 27.6953-0.0976562 27.6953-7.05078C27.6953-14.0137 21.9238-19.7754 14.9609-19.7754C8.00781-19.7754 2.25586-14.0137 2.25586-7.05078C2.25586-0.0976562 8.01758 5.66406 14.9707 5.66406ZM14.9707 3.84766C8.93555 3.84766 4.08203-1.01562 4.08203-7.05078C4.08203-13.0957 8.92578-17.9492 14.9609-17.9492C21.0059-17.9492 25.8691-13.0957 25.8691-7.05078C25.8691-1.01562 21.0156 3.84766 14.9707 3.84766ZM9.19922-7.05078C9.19922-6.5332 9.57031-6.17188 10.1172-6.17188L14.0625-6.17188L14.0625-2.2168C14.0625-1.67969 14.4336-1.29883 14.9512-1.29883C15.4883-1.29883 15.8594-1.66992 15.8594-2.2168L15.8594-6.17188L19.8145-6.17188C20.3516-6.17188 20.7324-6.5332 20.7324-7.05078C20.7324-7.59766 20.3613-7.96875 19.8145-7.96875L15.8594-7.96875L15.8594-11.9141C15.8594-12.4609 15.4883-12.8418 14.9512-12.8418C14.4336-12.8418 14.0625-12.4609 14.0625-11.9141L14.0625-7.96875L10.1172-7.96875C9.57031-7.96875 9.19922-7.59766 9.19922-7.05078Z"/>
  </g>
  <text style="stroke:none;fill:black;font-family:sans-serif;font-size:13;font-weight:bold;" transform="matrix(1 0 0 1 263 1953)">Design Variations</text>
  <text style="stroke:none;fill:black;font-family:sans-serif;font-size:13;" transform="matrix(1 0 0 1 263 1971)">Symbols are supported in up to nine weights and three scales.</text>
  <text style="stroke:none;fill:black;font-family:sans-serif;font-size:13;" transform="matrix(1 0 0 1 263 1989)">For optimal layout with text and other symbols, vertically align</text>
  <text style="stroke:none;fill:black;font-family:sans-serif;font-size:13;" transform="matrix(1 0 0 1 263 2007)">symbols with the adjacent text.</text>
  <line style="fill:none;stroke:#00AEEF;stroke-width:0.5;opacity:1.0;" x1="776" x2="776" y1="1919" y2="1933"/>
  <g transform="matrix(1 0 0 1 776 1933)">
   <path d="M3.31055 0.15625C3.82812 0.15625 4.08203-0.0390625 4.26758-0.585938L5.52734-4.0332L11.2891-4.0332L12.5488-0.585938C12.7344-0.0390625 12.9883 0.15625 13.4961 0.15625C14.0137 0.15625 14.3457-0.15625 14.3457-0.644531C14.3457-0.810547 14.3164-0.966797 14.2383-1.17188L9.6582-13.3691C9.43359-13.9648 9.0332-14.2676 8.4082-14.2676C7.80273-14.2676 7.39258-13.9746 7.17773-13.3789L2.59766-1.16211C2.51953-0.957031 2.49023-0.800781 2.49023-0.634766C2.49023-0.146484 2.80273 0.15625 3.31055 0.15625ZM6.00586-5.51758L8.37891-12.0898L8.42773-12.0898L10.8008-5.51758Z"/>
  </g>
  <line style="fill:none;stroke:#00AEEF;stroke-width:0.5;opacity:1.0;" x1="793.197" x2="793.197" y1="1919" y2="1933"/>
  <text style="stroke:none;fill:black;font-family:sans-serif;font-size:13;font-weight:bold;" transform="matrix(1 0 0 1 776 1953)">Margins</text>
  <text style="stroke:none;fill:black;font-family:sans-serif;font-size:13;" transform="matrix(1 0 0 1 776 1971)">Leading and trailing margins on the left and right side of each symbol</text>
  <text style="stroke:none;fill:black;font-family:sans-serif;font-size:13;" transform="matrix(1 0 0 1 776 1989)">can be adjusted by modifying the x-location of the margin guidelines.</text>
  <text style="stroke:none;fill:black;font-family:sans-serif;font-size:13;" transform="matrix(1 0 0 1 776 2007)">Modifications are automatically applied proportionally to all</text>
  <text style="stroke:none;fill:black;font-family:sans-serif;font-size:13;" transform="matrix(1 0 0 1 776 2025)">scales and weights.</text>
  <g transform="matrix(1 0 0 1 1289 1933)">
   <path d="M2.8418 1.86523L4.54102 3.57422C5.40039 4.44336 6.38672 4.38477 7.31445 3.35938L18.0078-8.42773L17.041-9.4043L6.42578 2.27539C6.07422 2.67578 5.74219 2.77344 5.27344 2.30469L4.10156 1.14258C3.63281 0.683594 3.74023 0.341797 4.14062-0.0195312L15.6152-10.8203L14.6387-11.7871L3.04688-0.898438C2.06055 0.0195312 1.98242 0.996094 2.8418 1.86523ZM9.25781-16.3281C8.83789-15.918 8.80859-15.3418 9.04297-14.9512C9.27734-14.5898 9.73633-14.3555 10.3809-14.5215C11.8457-14.8633 13.3691-14.9219 14.7949-13.9844L14.209-12.5293C13.8672-11.6992 14.043-11.1133 14.5801-10.5664L16.875-8.25195C17.3633-7.76367 17.7734-7.74414 18.3398-7.8418L19.4043-8.03711L20.0684-7.36328L20.0293-6.80664C19.9902-6.30859 20.1172-5.92773 20.6055-5.44922L21.3672-4.70703C21.8457-4.22852 22.4609-4.19922 22.9297-4.66797L25.8398-7.58789C26.3086-8.05664 26.2891-8.65234 25.8105-9.13086L25.0391-9.89258C24.5605-10.3711 24.1895-10.5273 23.7109-10.4883L23.1348-10.4395L22.4902-11.0742L22.7344-12.1973C22.8613-12.7637 22.7051-13.2031 22.1191-13.7891L19.9219-15.9766C16.582-19.2969 12.1484-19.2188 9.25781-16.3281ZM10.752-15.957C13.1836-17.7344 16.4746-17.4316 18.7012-15.2051L21.1328-12.793C21.3672-12.5586 21.4062-12.373 21.3379-12.0312L21.0156-10.5469L22.5195-9.0625L23.5059-9.12109C23.7598-9.13086 23.8379-9.11133 24.0332-8.91602L24.6094-8.33984L22.168-5.89844L21.5918-6.47461C21.3965-6.66992 21.3672-6.74805 21.377-7.01172L21.4453-7.98828L19.9512-9.47266L18.4277-9.21875C18.1055-9.15039 17.959-9.17969 17.7148-9.41406L15.7129-11.416C15.459-11.6504 15.4297-11.8164 15.5859-12.1875L16.4648-14.2773C14.9023-15.7324 12.8711-16.3574 10.8398-15.7617C10.6836-15.7227 10.625-15.8496 10.752-15.957Z"/>
  </g>
  <text style="stroke:none;fill:black;font-family:sans-serif;font-size:13;font-weight:bold;" transform="matrix(1 0 0 1 1289 1953)">Exporting</text>
  <text style="stroke:none;fill:black;font-family:sans-serif;font-size:13;" transform="matrix(1 0 0 1 1289 1971)">Symbols should be outlined when exporting to ensure the</text>
  <text style="stroke:none;fill:black;font-family:sans-serif;font-size:13;" transform="matrix(1 0 0 1 1289 1989)">design is preserved when submitting to Xcode.</text>
  <text id="template-version" style="stroke:none;fill:black;font-family:sans-serif;font-size:13;text-anchor:end;" transform="matrix(1 0 0 1 3036 1933)">Template v.3.0</text>
  <text style="stroke:none;fill:black;font-family:sans-serif;font-size:13;text-anchor:end;" transform="matrix(1 0 0 1 3036 1951)">Requires Xcode 13 or greater</text>
  <text id="descriptive-name" style="stroke:none;fill:black;font-family:sans-serif;font-size:13;text-anchor:end;" transform="matrix(1 0 0 1 3036 1969)">Generated from chart.bar</text>
  <text style="stroke:none;fill:black;font-family:sans-serif;font-size:13;text-anchor:end;" transform="matrix(1 0 0 1 3036 1987)">Typeset at 100 points</text>
  <text style="stroke:none;fill:black;font-family:sans-serif;font-size:13;" transform="matrix(1 0 0 1 263 726)">Small</text>
  <text style="stroke:none;fill:black;font-family:sans-serif;font-size:13;" transform="matrix(1 0 0 1 263 1156)">Medium</text>
  <text style="stroke:none;fill:black;font-family:sans-serif;font-size:13;" transform="matrix(1 0 0 1 263 1586)">Large</text>
 </g>
 <g id="Guides">
  <g id="H-reference" style="fill:#27AAE1;stroke:none;" transform="matrix(1 0 0 1 339 696)">
   <path d="M0.993654 0L3.63775 0L29.3281-67.1323L30.0303-67.1323L30.0303-70.459L28.1226-70.459ZM11.6885-24.4799L46.9815-24.4799L46.2315-26.7285L12.4385-26.7285ZM55.1196 0L57.7637 0L30.6382-70.459L29.4326-70.459L29.4326-67.1323Z"/>
  </g>
  <line id="Baseline-S" style="fill:none;stroke:#27AAE1;opacity:1;stroke-width:0.5;" x1="263" x2="3036" y1="696" y2="696"/>
  <line id="Capline-S" style="fill:none;stroke:#27AAE1;opacity:1;stroke-width:0.5;" x1="263" x2="3036" y1="625.541" y2="625.541"/>
  <g id="H-reference" style="fill:#27AAE1;stroke:none;" transform="matrix(1 0 0 1 339 1126)">
   <path d="M0.993654 0L3.63775 0L29.3281-67.1323L30.0303-67.1323L30.0303-70.459L28.1226-70.459ZM11.6885-24.4799L46.9815-24.4799L46.2315-26.7285L12.4385-26.7285ZM55.1196 0L57.7637 0L30.6382-70.459L29.4326-70.459L29.4326-67.1323Z"/>
  </g>
  <line id="Baseline-M" style="fill:none;stroke:#27AAE1;opacity:1;stroke-width:0.5;" x1="263" x2="3036" y1="1126" y2="1126"/>
  <line id="Capline-M" style="fill:none;stroke:#27AAE1;opacity:1;stroke-width:0.5;" x1="263" x2="3036" y1="1055.54" y2="1055.54"/>
  <g id="H-reference" style="fill:#27AAE1;stroke:none;" transform="matrix(1 0 0 1 339 1556)">
   <path d="M0.993654 0L3.63775 0L29.3281-67.1323L30.0303-67.1323L30.0303-70.459L28.1226-70.459ZM11.6885-24.4799L46.9815-24.4799L46.2315-26.7285L12.4385-26.7285ZM55.1196 0L57.7637 0L30.6382-70.459L29.4326-70.459L29.4326-67.1323Z"/>
  </g>
  <line id="Baseline-L" style="fill:none;stroke:#27AAE1;opacity:1;stroke-width:0.5;" x1="263" x2="3036" y1="1556" y2="1556"/>
  <line id="Capline-L" style="fill:none;stroke:#27AAE1;opacity:1;stroke-width:0.5;" x1="263" x2="3036" y1="1485.54" y2="1485.54"/>
  <line id="left-margin-Ultralight-S" style="fill:none;stroke:#00AEEF;stroke-width:0.5;opacity:1.0;" x1="504.445" x2="504.445" y1="600.785" y2="720.121"/>
  <line id="right-margin-Ultralight-S" style="fill:none;stroke:#00AEEF;stroke-width:0.5;opacity:1.0;" x1="614.977" x2="614.977" y1="600.785" y2="720.121"/>
  <line id="left-margin-Regular-S" style="fill:none;stroke:#00AEEF;stroke-width:0.5;opacity:1.0;" x1="1390.79" x2="1390.79" y1="600.785" y2="720.121"/>
  <line id="right-margin-Regular-S" style="fill:none;stroke:#00AEEF;stroke-width:0.5;opacity:1.0;" x1="1508.9" x2="1508.9" y1="600.785" y2="720.121"/>
  <line id="left-margin-Black-S" style="fill:none;stroke:#00AEEF;stroke-width:0.5;opacity:1.0;" x1="2866.02" x2="2866.02" y1="600.785" y2="720.121"/>
  <line id="right-margin-Black-S" style="fill:none;stroke:#00AEEF;stroke-width:0.5;opacity:1.0;" x1="3000.78" x2="3000.78" y1="600.785" y2="720.121"/>
 </g>
 <g id="Symbols">
  <g id="Black-S" transform="matrix(1 0 0 1 2866.02 696)">
   <path class="multicolor-0:tintColor hierarchical-0:primary SFSymbolsPreview007AFF" d="M24.3164 2.83203L30.3711 2.83203C39.1113 2.83203 44.9219-2.73438 44.9219-11.1328L44.9219-36.4746C44.9219-44.873 39.1113-50.4395 30.3711-50.4395L24.3164-50.4395C15.5762-50.4395 9.76562-44.873 9.76562-36.4258L9.76562-11.1328C9.76562-2.73438 15.5762 2.83203 24.3164 2.83203ZM26.416-9.0332C24.2676-9.0332 22.8516-10.4492 22.8516-12.5488L22.8516-35.0586C22.8516-37.1582 24.2676-38.5742 26.416-38.5742L28.2715-38.5742C30.4199-38.5742 31.8359-37.1582 31.8359-35.0586L31.8359-12.5488C31.8359-10.4492 30.4199-9.0332 28.2227-9.0332Z"/>
   <path class="multicolor-1:tintColor hierarchical-1:primary SFSymbolsPreview007AFF" d="M64.3555 2.83203L70.4102 2.83203C79.1504 2.83203 84.9609-2.73438 84.9609-11.1328L84.9609-47.8516C84.9609-56.25 79.1504-61.8164 70.4102-61.8164L64.3555-61.8164C55.6152-61.8164 49.8047-56.25 49.8047-47.8027L49.8047-11.1328C49.8047-2.73438 55.6152 2.83203 64.3555 2.83203ZM66.4551-9.0332C64.3066-9.0332 62.8906-10.4492 62.8906-12.5488L62.8906-46.4355C62.8906-48.5352 64.3066-49.9512 66.4551-49.9512L68.3105-49.9512C70.459-49.9512 71.875-48.5352 71.875-46.4355L71.875-12.5488C71.875-10.4492 70.459-9.0332 68.2617-9.0332Z"/>
   <path class="multicolor-2:tintColor hierarchical-2:primary SFSymbolsPreview007AFF" d="M104.395 2.83203L110.449 2.83203C119.189 2.83203 125-2.73438 125-11.1328L125-58.9355C125-67.334 119.189-72.9004 110.449-72.9004L104.395-72.9004C95.6543-72.9004 89.8438-67.334 89.8438-58.8867L89.8438-11.1328C89.8438-2.73438 95.6543 2.83203 104.395 2.83203ZM106.494-9.0332C104.346-9.0332 102.93-10.4492 102.93-12.5488L102.93-57.5195C102.93-59.6191 104.346-61.0352 106.494-61.0352L108.35-61.0352C110.498-61.0352 111.914-59.6191 111.914-57.5195L111.914-12.5488C111.914-10.4492 110.498-9.0332 108.301-9.0332Z"/>
  </g>
  <g id="Regular-S" transform="matrix(1 0 0 1 1390.79 696)">
   <path class="multicolor-0:tintColor hierarchical-0:primary SFSymbolsPreview007AFF" d="M19.3848 0.927734L29.3945 0.927734C35.7422 0.927734 39.0625-2.14844 39.0625-8.10547L39.0625-39.9414C39.0625-45.8984 35.7422-48.9746 29.3945-48.9746L19.3848-48.9746C13.0371-48.9746 9.76562-45.8984 9.76562-39.9414L9.76562-8.10547C9.76562-2.14844 13.0371 0.927734 19.3848 0.927734ZM20.6543-5.66406C17.6758-5.66406 16.6992-6.54297 16.6992-9.42383L16.6992-38.623C16.6992-41.5039 17.6758-42.3828 20.6543-42.3828L28.1738-42.3828C31.1523-42.3828 32.1289-41.5039 32.1289-38.623L32.1289-9.42383C32.1289-6.54297 31.1523-5.66406 28.1738-5.66406Z"/>
   <path class="multicolor-1:tintColor hierarchical-1:primary SFSymbolsPreview007AFF" d="M54.0039 0.927734L64.0625 0.927734C70.4102 0.927734 73.6816-2.14844 73.6816-8.10547L73.6816-51.1719C73.6816-57.1289 70.4102-60.1562 64.0625-60.1562L54.0039-60.1562C47.6562-60.1562 44.3848-57.1289 44.3848-51.1719L44.3848-8.10547C44.3848-2.14844 47.6562 0.927734 54.0039 0.927734ZM55.2734-5.66406C52.2949-5.66406 51.3672-6.54297 51.3672-9.42383L51.3672-49.8047C51.3672-52.6855 52.2949-53.6133 55.2734-53.6133L62.8418-53.6133C65.8203-53.6133 66.748-52.6855 66.748-49.8047L66.748-9.42383C66.748-6.54297 65.8203-5.66406 62.8418-5.66406Z"/>
   <path class="multicolor-2:tintColor hierarchical-2:primary SFSymbolsPreview007AFF" d="M88.6719 0.927734L98.6816 0.927734C105.029 0.927734 108.35-2.14844 108.35-8.10547L108.35-62.3535C108.35-68.3105 105.029-71.3867 98.6816-71.3867L88.6719-71.3867C82.3242-71.3867 79.0527-68.3105 79.0527-62.3535L79.0527-8.10547C79.0527-2.14844 82.3242 0.927734 88.6719 0.927734ZM89.9414-5.66406C86.9629-5.66406 85.9863-6.54297 85.9863-9.42383L85.9863-61.0352C85.9863-63.916 86.9629-64.7949 89.9414-64.7949L97.4609-64.7949C100.439-64.7949 101.416-63.916 101.416-61.0352L101.416-9.42383C101.416-6.54297 100.439-5.66406 97.4609-5.66406Z"/>
  </g>
  <g id="Ultralight-S" transform="matrix(1 0 0 1 504.445 696)">
   <path class="multicolor-0:tintColor hierarchical-0:primary SFSymbolsPreview007AFF" d="M16.0244 0.0649482L27.7598 0.0649482C31.9278 0.0649482 34.0674-2.05762 34.0674-6.3799L34.0674-42.5298C34.0674-46.852 31.9278-48.9746 27.7598-48.9746L16.0244-48.9746C11.8565-48.9746 9.76562-46.852 9.76562-42.5298L9.76562-6.3799C9.76562-2.05762 11.8565 0.0649482 16.0244 0.0649482ZM16.1133-2.1221C13.3164-2.1221 11.9766-3.59133 11.9766-6.47219L11.9766-42.4829C11.9766-45.3637 13.3164-46.7876 16.1133-46.7876L27.7197-46.7876C30.5166-46.7876 31.8564-45.3637 31.8564-42.4829L31.8564-6.47219C31.8564-3.59133 30.5166-2.1221 27.7197-2.1221Z"/>
   <path class="multicolor-1:tintColor hierarchical-1:primary SFSymbolsPreview007AFF" d="M49.4175 0.0649482L61.1563 0.0649482C65.3243 0.0649482 67.4151-2.05762 67.4151-6.3799L67.4151-53.3061C67.4151-57.6284 65.3243-59.7476 61.1563-59.7476L49.4175-59.7476C45.2495-59.7476 43.1133-57.6284 43.1133-53.3061L43.1133-6.3799C43.1133-2.05762 45.2495 0.0649482 49.4175 0.0649482ZM49.461-2.1221C46.6641-2.1221 45.3277-3.59133 45.3277-6.47219L45.3277-53.2558C45.3277-56.1367 46.6641-57.5639 49.461-57.5639L61.0708-57.5639C63.8677-57.5639 65.2041-56.1367 65.2041-53.2558L65.2041-6.47219C65.2041-3.59133 63.8677-2.1221 61.0708-2.1221Z"/>
   <path class="multicolor-2:tintColor hierarchical-2:primary SFSymbolsPreview007AFF" d="M82.7686 0.0649482L94.5039 0.0649482C98.6719 0.0649482 100.766-2.05762 100.766-6.3799L100.766-64.3061C100.766-68.6284 98.6719-70.751 94.5039-70.751L82.7686-70.751C78.6006-70.751 76.5098-68.6284 76.5098-64.3061L76.5098-6.3799C76.5098-2.05762 78.6006 0.0649482 82.7686 0.0649482ZM82.8575-2.1221C80.0606-2.1221 78.7208-3.59133 78.7208-6.47219L78.7208-64.2593C78.7208-67.1401 80.0606-68.5639 82.8575-68.5639L94.4639-68.5639C97.2154-68.5639 98.6006-67.1401 98.6006-64.2593L98.6006-6.47219C98.6006-3.59133 97.2154-2.1221 94.4639-2.1221Z"/>
  </g>
 </g>
</svg>
