<?xml version="1.0" encoding="UTF-8"?>
<!--Generator: Apple Native CoreSVG 175.5-->
<!DOCTYPE svg
PUBLIC "-//W3C//DTD SVG 1.1//EN"
       "http://www.w3.org/Graphics/SVG/1.1/DTD/svg11.dtd">
<svg version="1.1" xmlns="http://www.w3.org/2000/svg" xmlns:xlink="http://www.w3.org/1999/xlink" width="3300" height="2200">
 <!--glyph: "uni10026B.medium", point size: 100.0, font version: "18.0d11e1", template writer version: "90"-->
 <style>.hierarchical-0:primary {fill:#212121}
.hierarchical-1:secondary {fill:#4D4D4D}

.SFSymbolsPreview212121 {fill:#212121;opacity:1.0}
.SFSymbolsPreview4D4D4D {fill:#4D4D4D;opacity:1.0}
</style>
 <g id="Notes">
  <rect height="2200" id="artboard" style="fill:white;opacity:1" width="3300" x="0" y="0"/>
  <line style="fill:none;stroke:black;opacity:1;stroke-width:0.5;" x1="263" x2="3036" y1="292" y2="292"/>
  <text style="stroke:none;fill:black;font-family:sans-serif;font-size:13;font-weight:bold;" transform="matrix(1 0 0 1 263 322)">Weight/Scale Variations</text>
  <text style="stroke:none;fill:black;font-family:sans-serif;font-size:13;text-anchor:middle;" transform="matrix(1 0 0 1 559.711 322)">Ultralight</text>
  <text style="stroke:none;fill:black;font-family:sans-serif;font-size:13;text-anchor:middle;" transform="matrix(1 0 0 1 856.422 322)">Thin</text>
  <text style="stroke:none;fill:black;font-family:sans-serif;font-size:13;text-anchor:middle;" transform="matrix(1 0 0 1 1153.13 322)">Light</text>
  <text style="stroke:none;fill:black;font-family:sans-serif;font-size:13;text-anchor:middle;" transform="matrix(1 0 0 1 1449.84 322)">Regular</text>
  <text style="stroke:none;fill:black;font-family:sans-serif;font-size:13;text-anchor:middle;" transform="matrix(1 0 0 1 1746.56 322)">Medium</text>
  <text style="stroke:none;fill:black;font-family:sans-serif;font-size:13;text-anchor:middle;" transform="matrix(1 0 0 1 2043.27 322)">Semibold</text>
  <text style="stroke:none;fill:black;font-family:sans-serif;font-size:13;text-anchor:middle;" transform="matrix(1 0 0 1 2339.98 322)">Bold</text>
  <text style="stroke:none;fill:black;font-family:sans-serif;font-size:13;text-anchor:middle;" transform="matrix(1 0 0 1 2636.69 322)">Heavy</text>
  <text style="stroke:none;fill:black;font-family:sans-serif;font-size:13;text-anchor:middle;" transform="matrix(1 0 0 1 2933.4 322)">Black</text>
  <line style="fill:none;stroke:black;opacity:1;stroke-width:0.5;" x1="263" x2="3036" y1="1903" y2="1903"/>
  <g transform="matrix(1 0 0 1 263 1933)">
   <path d="M9.24805 0.830078C13.5547 0.830078 17.1387-2.74414 17.1387-7.05078C17.1387-11.3574 13.5449-14.9316 9.23828-14.9316C4.94141-14.9316 1.36719-11.3574 1.36719-7.05078C1.36719-2.74414 4.95117 0.830078 9.24805 0.830078ZM9.24805-0.654297C5.70312-0.654297 2.87109-3.49609 2.87109-7.05078C2.87109-10.6055 5.69336-13.4473 9.23828-13.4473C12.793-13.4473 15.6445-10.6055 15.6445-7.05078C15.6445-3.49609 12.8027-0.654297 9.24805-0.654297ZM5.6543-7.05078C5.6543-6.62109 5.95703-6.32812 6.40625-6.32812L8.50586-6.32812L8.50586-4.20898C8.50586-3.76953 8.79883-3.4668 9.22852-3.4668C9.67773-3.4668 9.9707-3.76953 9.9707-4.20898L9.9707-6.32812L12.0898-6.32812C12.5293-6.32812 12.832-6.62109 12.832-7.05078C12.832-7.49023 12.5293-7.79297 12.0898-7.79297L9.9707-7.79297L9.9707-9.90234C9.9707-10.3516 9.67773-10.6543 9.22852-10.6543C8.79883-10.6543 8.50586-10.3516 8.50586-9.90234L8.50586-7.79297L6.40625-7.79297C5.95703-7.79297 5.6543-7.49023 5.6543-7.05078Z"/>
  </g>
  <g transform="matrix(1 0 0 1 281.867 1933)">
   <path d="M11.709 2.91016C17.1582 2.91016 21.6699-1.61133 21.6699-7.05078C21.6699-12.5 17.1484-17.0117 11.6992-17.0117C6.25977-17.0117 1.74805-12.5 1.74805-7.05078C1.74805-1.61133 6.26953 2.91016 11.709 2.91016ZM11.709 1.25C7.09961 1.25 3.41797-2.44141 3.41797-7.05078C3.41797-11.6602 7.08984-15.3516 11.6992-15.3516C16.3086-15.3516 20.0098-11.6602 20.0098-7.05078C20.0098-2.44141 16.3184 1.25 11.709 1.25ZM7.17773-7.05078C7.17773-6.57227 7.50977-6.25 8.00781-6.25L10.8789-6.25L10.8789-3.36914C10.8789-2.88086 11.2109-2.53906 11.6895-2.53906C12.1777-2.53906 12.5195-2.87109 12.5195-3.36914L12.5195-6.25L15.4004-6.25C15.8887-6.25 16.2305-6.57227 16.2305-7.05078C16.2305-7.53906 15.8887-7.88086 15.4004-7.88086L12.5195-7.88086L12.5195-10.752C12.5195-11.25 12.1777-11.5918 11.6895-11.5918C11.2109-11.5918 10.8789-11.25 10.8789-10.752L10.8789-7.88086L8.00781-7.88086C7.50977-7.88086 7.17773-7.53906 7.17773-7.05078Z"/>
  </g>
  <g transform="matrix(1 0 0 1 305.646 1933)">
   <path d="M14.9707 5.66406C21.9336 5.66406 27.6953-0.0976562 27.6953-7.05078C27.6953-14.0137 21.9238-19.7754 14.9609-19.7754C8.00781-19.7754 2.25586-14.0137 2.25586-7.05078C2.25586-0.0976562 8.01758 5.66406 14.9707 5.66406ZM14.9707 3.84766C8.93555 3.84766 4.08203-1.01562 4.08203-7.05078C4.08203-13.0957 8.92578-17.9492 14.9609-17.9492C21.0059-17.9492 25.8691-13.0957 25.8691-7.05078C25.8691-1.01562 21.0156 3.84766 14.9707 3.84766ZM9.19922-7.05078C9.19922-6.5332 9.57031-6.17188 10.1172-6.17188L14.0625-6.17188L14.0625-2.2168C14.0625-1.67969 14.4336-1.29883 14.9512-1.29883C15.4883-1.29883 15.8594-1.66992 15.8594-2.2168L15.8594-6.17188L19.8145-6.17188C20.3516-6.17188 20.7324-6.5332 20.7324-7.05078C20.7324-7.59766 20.3613-7.96875 19.8145-7.96875L15.8594-7.96875L15.8594-11.9141C15.8594-12.4609 15.4883-12.8418 14.9512-12.8418C14.4336-12.8418 14.0625-12.4609 14.0625-11.9141L14.0625-7.96875L10.1172-7.96875C9.57031-7.96875 9.19922-7.59766 9.19922-7.05078Z"/>
  </g>
  <text style="stroke:none;fill:black;font-family:sans-serif;font-size:13;font-weight:bold;" transform="matrix(1 0 0 1 263 1953)">Design Variations</text>
  <text style="stroke:none;fill:black;font-family:sans-serif;font-size:13;" transform="matrix(1 0 0 1 263 1971)">Symbols are supported in up to nine weights and three scales.</text>
  <text style="stroke:none;fill:black;font-family:sans-serif;font-size:13;" transform="matrix(1 0 0 1 263 1989)">For optimal layout with text and other symbols, vertically align</text>
  <text style="stroke:none;fill:black;font-family:sans-serif;font-size:13;" transform="matrix(1 0 0 1 263 2007)">symbols with the adjacent text.</text>
  <line style="fill:none;stroke:#00AEEF;stroke-width:0.5;opacity:1.0;" x1="776" x2="776" y1="1919" y2="1933"/>
  <g transform="matrix(1 0 0 1 776 1933)">
   <path d="M3.31055 0.15625C3.82812 0.15625 4.08203-0.0390625 4.26758-0.585938L5.52734-4.0332L11.2891-4.0332L12.5488-0.585938C12.7344-0.0390625 12.9883 0.15625 13.4961 0.15625C14.0137 0.15625 14.3457-0.15625 14.3457-0.644531C14.3457-0.810547 14.3164-0.966797 14.2383-1.17188L9.6582-13.3691C9.43359-13.9648 9.0332-14.2676 8.4082-14.2676C7.80273-14.2676 7.39258-13.9746 7.17773-13.3789L2.59766-1.16211C2.51953-0.957031 2.49023-0.800781 2.49023-0.634766C2.49023-0.146484 2.80273 0.15625 3.31055 0.15625ZM6.00586-5.51758L8.37891-12.0898L8.42773-12.0898L10.8008-5.51758Z"/>
  </g>
  <line style="fill:none;stroke:#00AEEF;stroke-width:0.5;opacity:1.0;" x1="793.197" x2="793.197" y1="1919" y2="1933"/>
  <text style="stroke:none;fill:black;font-family:sans-serif;font-size:13;font-weight:bold;" transform="matrix(1 0 0 1 776 1953)">Margins</text>
  <text style="stroke:none;fill:black;font-family:sans-serif;font-size:13;" transform="matrix(1 0 0 1 776 1971)">Leading and trailing margins on the left and right side of each symbol</text>
  <text style="stroke:none;fill:black;font-family:sans-serif;font-size:13;" transform="matrix(1 0 0 1 776 1989)">can be adjusted by modifying the x-location of the margin guidelines.</text>
  <text style="stroke:none;fill:black;font-family:sans-serif;font-size:13;" transform="matrix(1 0 0 1 776 2007)">Modifications are automatically applied proportionally to all</text>
  <text style="stroke:none;fill:black;font-family:sans-serif;font-size:13;" transform="matrix(1 0 0 1 776 2025)">scales and weights.</text>
  <g transform="matrix(1 0 0 1 1289 1933)">
   <path d="M2.8418 1.86523L4.54102 3.57422C5.40039 4.44336 6.38672 4.38477 7.31445 3.35938L18.0078-8.42773L17.041-9.4043L6.42578 2.27539C6.07422 2.67578 5.74219 2.77344 5.27344 2.30469L4.10156 1.14258C3.63281 0.683594 3.74023 0.341797 4.14062-0.0195312L15.6152-10.8203L14.6387-11.7871L3.04688-0.898438C2.06055 0.0195312 1.98242 0.996094 2.8418 1.86523ZM9.25781-16.3281C8.83789-15.918 8.80859-15.3418 9.04297-14.9512C9.27734-14.5898 9.73633-14.3555 10.3809-14.5215C11.8457-14.8633 13.3691-14.9219 14.7949-13.9844L14.209-12.5293C13.8672-11.6992 14.043-11.1133 14.5801-10.5664L16.875-8.25195C17.3633-7.76367 17.7734-7.74414 18.3398-7.8418L19.4043-8.03711L20.0684-7.36328L20.0293-6.80664C19.9902-6.30859 20.1172-5.92773 20.6055-5.44922L21.3672-4.70703C21.8457-4.22852 22.4609-4.19922 22.9297-4.66797L25.8398-7.58789C26.3086-8.05664 26.2891-8.65234 25.8105-9.13086L25.0391-9.89258C24.5605-10.3711 24.1895-10.5273 23.7109-10.4883L23.1348-10.4395L22.4902-11.0742L22.7344-12.1973C22.8613-12.7637 22.7051-13.2031 22.1191-13.7891L19.9219-15.9766C16.582-19.2969 12.1484-19.2188 9.25781-16.3281ZM10.752-15.957C13.1836-17.7344 16.4746-17.4316 18.7012-15.2051L21.1328-12.793C21.3672-12.5586 21.4062-12.373 21.3379-12.0312L21.0156-10.5469L22.5195-9.0625L23.5059-9.12109C23.7598-9.13086 23.8379-9.11133 24.0332-8.91602L24.6094-8.33984L22.168-5.89844L21.5918-6.47461C21.3965-6.66992 21.3672-6.74805 21.377-7.01172L21.4453-7.98828L19.9512-9.47266L18.4277-9.21875C18.1055-9.15039 17.959-9.17969 17.7148-9.41406L15.7129-11.416C15.459-11.6504 15.4297-11.8164 15.5859-12.1875L16.4648-14.2773C14.9023-15.7324 12.8711-16.3574 10.8398-15.7617C10.6836-15.7227 10.625-15.8496 10.752-15.957Z"/>
  </g>
  <text style="stroke:none;fill:black;font-family:sans-serif;font-size:13;font-weight:bold;" transform="matrix(1 0 0 1 1289 1953)">Exporting</text>
  <text style="stroke:none;fill:black;font-family:sans-serif;font-size:13;" transform="matrix(1 0 0 1 1289 1971)">Symbols should be outlined when exporting to ensure the</text>
  <text style="stroke:none;fill:black;font-family:sans-serif;font-size:13;" transform="matrix(1 0 0 1 1289 1989)">design is preserved when submitting to Xcode.</text>
  <text id="template-version" style="stroke:none;fill:black;font-family:sans-serif;font-size:13;text-anchor:end;" transform="matrix(1 0 0 1 3036 1933)">Template v.3.0</text>
  <text style="stroke:none;fill:black;font-family:sans-serif;font-size:13;text-anchor:end;" transform="matrix(1 0 0 1 3036 1951)">Requires Xcode 13 or greater</text>
  <text id="descriptive-name" style="stroke:none;fill:black;font-family:sans-serif;font-size:13;text-anchor:end;" transform="matrix(1 0 0 1 3036 1969)">Generated from person.2</text>
  <text style="stroke:none;fill:black;font-family:sans-serif;font-size:13;text-anchor:end;" transform="matrix(1 0 0 1 3036 1987)">Typeset at 100 points</text>
  <text style="stroke:none;fill:black;font-family:sans-serif;font-size:13;" transform="matrix(1 0 0 1 263 726)">Small</text>
  <text style="stroke:none;fill:black;font-family:sans-serif;font-size:13;" transform="matrix(1 0 0 1 263 1156)">Medium</text>
  <text style="stroke:none;fill:black;font-family:sans-serif;font-size:13;" transform="matrix(1 0 0 1 263 1586)">Large</text>
 </g>
 <g id="Guides">
  <g id="H-reference" style="fill:#27AAE1;stroke:none;" transform="matrix(1 0 0 1 339 696)">
   <path d="M0.993654 0L3.63775 0L29.3281-67.1323L30.0303-67.1323L30.0303-70.459L28.1226-70.459ZM11.6885-24.4799L46.9815-24.4799L46.2315-26.7285L12.4385-26.7285ZM55.1196 0L57.7637 0L30.6382-70.459L29.4326-70.459L29.4326-67.1323Z"/>
  </g>
  <line id="Baseline-S" style="fill:none;stroke:#27AAE1;opacity:1;stroke-width:0.5;" x1="263" x2="3036" y1="696" y2="696"/>
  <line id="Capline-S" style="fill:none;stroke:#27AAE1;opacity:1;stroke-width:0.5;" x1="263" x2="3036" y1="625.541" y2="625.541"/>
  <g id="H-reference" style="fill:#27AAE1;stroke:none;" transform="matrix(1 0 0 1 339 1126)">
   <path d="M0.993654 0L3.63775 0L29.3281-67.1323L30.0303-67.1323L30.0303-70.459L28.1226-70.459ZM11.6885-24.4799L46.9815-24.4799L46.2315-26.7285L12.4385-26.7285ZM55.1196 0L57.7637 0L30.6382-70.459L29.4326-70.459L29.4326-67.1323Z"/>
  </g>
  <line id="Baseline-M" style="fill:none;stroke:#27AAE1;opacity:1;stroke-width:0.5;" x1="263" x2="3036" y1="1126" y2="1126"/>
  <line id="Capline-M" style="fill:none;stroke:#27AAE1;opacity:1;stroke-width:0.5;" x1="263" x2="3036" y1="1055.54" y2="1055.54"/>
  <g id="H-reference" style="fill:#27AAE1;stroke:none;" transform="matrix(1 0 0 1 339 1556)">
   <path d="M0.993654 0L3.63775 0L29.3281-67.1323L30.0303-67.1323L30.0303-70.459L28.1226-70.459ZM11.6885-24.4799L46.9815-24.4799L46.2315-26.7285L12.4385-26.7285ZM55.1196 0L57.7637 0L30.6382-70.459L29.4326-70.459L29.4326-67.1323Z"/>
  </g>
  <line id="Baseline-L" style="fill:none;stroke:#27AAE1;opacity:1;stroke-width:0.5;" x1="263" x2="3036" y1="1556" y2="1556"/>
  <line id="Capline-L" style="fill:none;stroke:#27AAE1;opacity:1;stroke-width:0.5;" x1="263" x2="3036" y1="1485.54" y2="1485.54"/>
  <line id="left-margin-Ultralight-S" style="fill:none;stroke:#00AEEF;stroke-width:0.5;opacity:1.0;" x1="497.836" x2="497.836" y1="600.785" y2="720.121"/>
  <line id="right-margin-Ultralight-S" style="fill:none;stroke:#00AEEF;stroke-width:0.5;opacity:1.0;" x1="621.586" x2="621.586" y1="600.785" y2="720.121"/>
  <line id="left-margin-Regular-S" style="fill:none;stroke:#00AEEF;stroke-width:0.5;opacity:1.0;" x1="1386.54" x2="1386.54" y1="600.785" y2="720.121"/>
  <line id="right-margin-Regular-S" style="fill:none;stroke:#00AEEF;stroke-width:0.5;opacity:1.0;" x1="1513.15" x2="1513.15" y1="600.785" y2="720.121"/>
  <line id="left-margin-Black-S" style="fill:none;stroke:#00AEEF;stroke-width:0.5;opacity:1.0;" x1="2868.31" x2="2868.31" y1="600.785" y2="720.121"/>
  <line id="right-margin-Black-S" style="fill:none;stroke:#00AEEF;stroke-width:0.5;opacity:1.0;" x1="2998.49" x2="2998.49" y1="600.785" y2="720.121"/>
 </g>
 <g id="Symbols">
  <g id="Black-S" transform="matrix(1 0 0 1 2868.31 696)">
   <path class="hierarchical-0:primary SFSymbolsPreview212121" d="M62.7441 2.63672L108.74 2.63672C116.455 2.63672 120.41-0.244141 120.41-6.15234C120.41-18.8477 105.127-30.6641 85.7422-30.6641C66.3574-30.6641 51.0742-18.8477 51.0742-6.15234C51.0742-0.244141 55.0293 2.63672 62.7441 2.63672ZM85.7422-33.7402C95.7031-33.7402 103.516-42.1875 103.516-52.8809C103.516-63.1836 95.5078-71.7773 85.7422-71.7773C75.9766-71.7773 67.9199-63.1836 67.9688-52.8809C68.0176-42.1875 75.7812-33.7402 85.7422-33.7402ZM64.3555-8.10547C63.8672-8.10547 63.7695-8.44727 63.7695-8.74023C63.7695-12.5488 72.0703-19.9219 85.7422-19.9219C99.4141-19.9219 107.715-12.5488 107.715-8.74023C107.715-8.44727 107.617-8.10547 107.129-8.10547ZM85.7422-44.4824C81.8848-44.4824 78.7109-47.998 78.7109-52.9297C78.6621-57.373 82.0312-61.0352 85.7422-61.0352C89.502-61.0352 92.7734-57.373 92.7734-52.8809C92.7734-48.0469 89.6484-44.4824 85.7422-44.4824Z"/>
   <path class="hierarchical-1:secondary SFSymbolsPreview4D4D4D" d="M40.1367-32.9102C48.877-32.9102 55.8105-40.3809 55.8105-49.8047C55.8105-58.8867 48.6816-66.4551 40.1367-66.4551C31.543-66.4551 24.4141-58.8379 24.4629-49.8047C24.5117-40.332 31.3965-32.9102 40.1367-32.9102ZM20.1172 2.68555L48.4375 2.68555C45.166 0.585938 43.75-4.3457 44.0918-7.91016L22.4121-7.91016C21.9238-7.91016 21.8262-8.25195 21.8262-8.49609C21.8262-13.9648 29.6875-20.1172 40.1367-20.1172C41.9922-20.1172 46.1426-19.4336 47.6562-19.043C49.2188-22.4121 51.709-25.1953 55.5176-27.3926C51.123-29.248 44.4824-30.6152 40.1367-30.6152C23.291-30.6152 9.76562-19.3359 9.76562-6.68945C9.76562-0.732422 13.1836 2.68555 20.1172 2.68555ZM40.1367-43.457C37.3535-43.457 35.0098-46.0938 35.0098-49.8047C34.9609-53.125 37.4512-55.9082 40.1367-55.9082C42.7734-55.9082 45.2637-53.125 45.2637-49.8047C45.2637-46.0938 42.9688-43.457 40.1367-43.457Z"/>
  </g>
  <g id="Regular-S" transform="matrix(1 0 0 1 1386.54 696)">
   <path class="hierarchical-0:primary SFSymbolsPreview212121" d="M59.5215 1.12305L106.738 1.12305C113.574 1.12305 116.846-0.878906 116.846-5.27344C116.846-15.332 104.102-30.0293 83.1055-30.0293C62.1582-30.0293 49.4141-15.332 49.4141-5.27344C49.4141-0.878906 52.6855 1.12305 59.5215 1.12305ZM83.1543-34.5215C92.334-34.5215 99.9512-42.7246 99.9512-52.6855C99.9512-62.5977 92.4316-70.3613 83.1543-70.3613C73.877-70.3613 66.3086-62.4512 66.3086-52.5879C66.3086-42.7246 73.9258-34.5215 83.1543-34.5215ZM57.2754-5.46875C56.7383-5.46875 56.4453-5.61523 56.4453-6.15234C56.4453-11.8652 65.8691-23.4375 83.1055-23.4375C100.391-23.4375 109.766-11.8652 109.766-6.15234C109.766-5.61523 109.521-5.46875 108.984-5.46875ZM83.1543-41.0645C77.9297-41.0645 73.3887-46.1914 73.3887-52.5879C73.3398-58.9844 77.7832-63.7695 83.1543-63.7695C88.5254-63.7695 92.8711-59.082 92.8711-52.6855C92.8711-46.2891 88.3789-41.0645 83.1543-41.0645Z"/>
   <path class="hierarchical-1:secondary SFSymbolsPreview4D4D4D" d="M39.0625-34.2773C47.0215-34.2773 53.6133-41.5039 53.6133-50.2441C53.6133-58.8867 47.168-65.7715 39.0625-65.7715C31.0547-65.7715 24.4629-58.7402 24.4629-50.1953C24.4629-41.4551 31.1035-34.2773 39.0625-34.2773ZM18.0664 1.12305L47.168 1.12305C45.0684-0.0488281 43.5547-2.68555 43.9453-5.32227L16.8945-5.32227C16.5039-5.32227 16.2598-5.51758 16.2598-5.95703C16.2598-14.9902 26.8555-23.6328 39.0137-23.6328C43.3594-23.6328 47.2656-22.7051 50.7324-20.9473C52.0996-22.6562 53.7109-24.2188 55.6641-25.5859C50.7812-28.5645 45.0684-30.0781 39.0137-30.0781C23.2422-30.0781 9.76562-18.6035 9.76562-5.51758C9.76562-1.07422 12.5488 1.12305 18.0664 1.12305ZM39.0625-40.7715C34.7168-40.7715 30.957-45.0195 30.957-50.1953C30.957-55.2246 34.6191-59.2773 39.0625-59.2773C43.5547-59.2773 47.168-55.3223 47.168-50.2441C47.168-45.0195 43.4082-40.7715 39.0625-40.7715Z"/>
  </g>
  <g id="Ultralight-S" transform="matrix(1 0 0 1 497.836 696)">
   <path class="hierarchical-0:primary SFSymbolsPreview212121" d="M55.9341-0.511706L107.646-0.511706C111.939-0.511706 113.985-2.01415 113.985-5.31885C113.985-15.1958 101.604-28.8941 81.7886-28.8941C62.022-28.8941 49.6411-15.1958 49.6411-5.31885C49.6411-2.01415 51.6865-0.511706 55.9341-0.511706ZM81.8828-34.9302C90.5176-34.9302 97.1812-42.3159 97.1812-51.9136C97.1812-61.0083 90.2974-68.4995 81.8828-68.4995C73.4683-68.4995 66.5356-60.9526 66.6265-51.9067C66.7173-42.3159 73.29-34.9302 81.8828-34.9302ZM55.8223-2.69875C52.7876-2.69875 51.8589-3.39015 51.8589-5.38038C51.8589-14.3174 63.0537-26.7524 81.7886-26.7524C100.572-26.7524 111.764-14.3174 111.764-5.38038C111.764-3.39015 110.838-2.69875 107.758-2.69875ZM81.8828-37.1138C74.524-37.1138 68.8477-43.5122 68.8477-51.9067C68.7535-59.7563 74.6953-66.3125 81.8828-66.3125C89.0703-66.3125 94.9599-59.8086 94.9599-51.9136C94.9599-43.5191 89.2417-37.1138 81.8828-37.1138Z"/>
   <path class="hierarchical-1:secondary SFSymbolsPreview4D4D4D" d="M37.8364-34.1411C45.3867-34.1411 51.2066-40.5503 51.2066-48.9273C51.2066-56.8887 45.1699-63.4556 37.8364-63.4556C30.5098-63.4556 24.4629-56.833 24.5537-48.9238C24.6445-40.5469 30.3315-34.1411 37.8364-34.1411ZM15.2964-0.511706L49.4385-0.511706C48.7011-0.866205 47.8686-1.68653 47.4873-2.64309L15.2598-2.64309C12.8257-2.64309 11.9458-3.47414 11.9458-5.63916C11.9458-17.1699 23.6768-26.9477 37.7422-26.9477C44.7671-26.9477 51.0346-24.8393 55.6821-20.811C56.2319-21.294 56.7534-21.7666 57.3442-22.2256C52.0527-26.7027 45.25-29.0791 37.7422-29.0791C20.6538-29.0791 9.76562-16.6963 9.76562-5.6084C9.76562-2.16405 11.5952-0.511706 15.2964-0.511706ZM37.8364-36.3213C31.5381-36.3213 26.7339-41.7046 26.7339-48.9238C26.7339-55.6333 31.7129-61.2754 37.8364-61.2754C43.9634-61.2754 49.0298-55.6855 49.0298-48.9273C49.0298-41.7046 44.1348-36.3213 37.8364-36.3213Z"/>
  </g>
 </g>
</svg>
