
  <svg
    width="1000"
    height="1000"
    viewBox="0 0 1000 1000"
    xmlns="http://www.w3.org/2000/svg"
  >
    <defs>
      
      
      
      
      
      
      
      <clipPath id="shape">
        <path fill="currentColor" d="M812,617Q821,734,710,769Q599,804,481.5,862Q364,920,249.5,842.5Q135,765,129.5,632.5Q124,500,190,411.5Q256,323,303.5,182.5Q351,42,491,69.5Q631,97,766.5,152.5Q902,208,852.5,354Q803,500,812,617Z"></path>
      </clipPath>
    </defs>
  
    

    <g  clip-path="url(#shape)">
      <path fill="#3d6e82" d="M812,617Q821,734,710,769Q599,804,481.5,862Q364,920,249.5,842.5Q135,765,129.5,632.5Q124,500,190,411.5Q256,323,303.5,182.5Q351,42,491,69.5Q631,97,766.5,152.5Q902,208,852.5,354Q803,500,812,617Z" />
    </g>

    
  
  </svg>